<svg id="Layer_1" data-name="Layer 1" xmlns="http://www.w3.org/2000/svg" viewBox="0 0 512 512"><title>snow-flake-glyph</title><path d="M457,335.44a10.68,10.68,0,0,0-12.36-8.65l-55.07,9.71L357.49,314,399,306.72a10.67,10.67,0,1,0-3.7-21l-62.5,11-35.15-24.61,8.58-8.58a10.66,10.66,0,0,0,0-15.08l-8.58-8.58,35.15-24.61,62.5,11a10.82,10.82,0,0,0,1.86.16A10.67,10.67,0,0,0,399,205.28L357.49,198l32.08-22.46,55.07,9.71a10.85,10.85,0,0,0,1.86.16A10.67,10.67,0,0,0,457,176.56l10.48-59.42a10.67,10.67,0,0,0-8.65-12.36L399.39,94.3A10.67,10.67,0,0,0,387,102.95L377.33,158l-32.08,22.46L352.56,139a10.67,10.67,0,0,0-21-3.71l-11,62.5-38.22,26.77-15.64-15.64V169.75l44.88-44.87a10.67,10.67,0,0,0-15.08-15.08l-29.79,29.79V100.42l39.54-39.54a10.66,10.66,0,0,0,0-15.08L263.54,3.13a10.66,10.66,0,0,0-15.08,0L205.79,45.79a10.66,10.66,0,0,0,0,15.08l39.54,39.54v39.17l-29.79-29.79a10.67,10.67,0,0,0-15.08,15.08l44.88,44.88v39.17l-15.64,15.64-38.22-26.77-11-62.5a10.67,10.67,0,0,0-21,3.71l7.32,41.49L134.67,158,125,103a10.69,10.69,0,0,0-12.36-8.65L53.18,104.78a10.67,10.67,0,0,0-8.65,12.36L55,176.56a10.66,10.66,0,0,0,10.51,8.81,10.57,10.57,0,0,0,1.85-.16l55.07-9.71L154.51,198,113,205.28a10.67,10.67,0,0,0,1.84,21.17,10.82,10.82,0,0,0,1.86-.16l62.5-11,35.15,24.61-8.58,8.58a10.66,10.66,0,0,0,0,15.08l8.58,8.58-35.15,24.61-62.5-11a10.67,10.67,0,1,0-3.7,21L154.51,314,122.43,336.5l-55.07-9.71A10.68,10.68,0,0,0,55,335.44L44.53,394.86a10.67,10.67,0,0,0,8.65,12.36l59.42,10.47a10.85,10.85,0,0,0,1.86.16A10.67,10.67,0,0,0,125,409L134.67,354l32.08-22.46L159.44,373a10.67,10.67,0,0,0,8.65,12.36,10.82,10.82,0,0,0,1.86.16,10.67,10.67,0,0,0,10.49-8.81l11-62.5,38.22-26.77,15.64,15.64v39.17l-44.87,44.88a10.67,10.67,0,1,0,15.08,15.08l29.79-29.79v39.17l-39.54,39.54a10.66,10.66,0,0,0,0,15.08l42.67,42.67a10.66,10.66,0,0,0,15.08,0l42.67-42.67a10.66,10.66,0,0,0,0-15.08l-39.54-39.54V372.42l29.79,29.79a10.67,10.67,0,1,0,15.08-15.08l-44.87-44.87V303.08l15.64-15.64,38.22,26.77,11,62.5A10.67,10.67,0,0,0,342,385.52a10.82,10.82,0,0,0,1.86-.16A10.67,10.67,0,0,0,352.56,373l-7.32-41.49L377.33,354,387,409a10.67,10.67,0,0,0,10.49,8.81,10.82,10.82,0,0,0,1.86-.16l59.42-10.47a10.67,10.67,0,0,0,8.65-12.36Z"/></svg>